<?xml version="1.0" encoding="UTF-8"?>
<svg xmlns="http://www.w3.org/2000/svg" xmlns:xlink="http://www.w3.org/1999/xlink" viewBox="0 0 643.74 535.16">
  <defs>
    <style>
      .cls-1 {
        fill: #f0fcf1;
      }

      .cls-1, .cls-2, .cls-3, .cls-4, .cls-5, .cls-6, .cls-7, .cls-8, .cls-9, .cls-10, .cls-11, .cls-12, .cls-13, .cls-14, .cls-15, .cls-16, .cls-17, .cls-18, .cls-19, .cls-20, .cls-21, .cls-22, .cls-23, .cls-24, .cls-25, .cls-26 {
        stroke-width: 0px;
      }

      .cls-2 {
        fill: #2a4f3a;
      }

      .cls-3 {
        fill: #c5d8c5;
      }

      .cls-4 {
        fill: #d9fcdf;
      }

      .cls-5 {
        fill: none;
      }

      .cls-6, .cls-19 {
        fill: #4c4c4c;
      }

      .cls-6, .cls-27, .cls-28 {
        opacity: .3;
      }

      .cls-6, .cls-28 {
        mix-blend-mode: multiply;
      }

      .cls-7 {
        fill: #f8b0ea;
      }

      .cls-8 {
        fill: #b7eabb;
      }

      .cls-9 {
        fill: #0b5903;
      }

      .cls-10 {
        fill: #e6fce7;
      }

      .cls-29 {
        clip-path: url(#clippath-3);
      }

      .cls-30 {
        clip-path: url(#clippath-2);
      }

      .cls-11 {
        fill: #bef4c5;
        opacity: .7;
      }

      .cls-12 {
        fill: #ddd;
      }

      .cls-13 {
        fill: #197710;
      }

      .cls-14 {
        fill: #ea5eb3;
      }

      .cls-15 {
        fill: #153525;
      }

      .cls-16 {
        fill: #ddefdf;
      }

      .cls-17, .cls-18 {
        fill: #4c9848;
      }

      .cls-18 {
        opacity: .35;
      }

      .cls-20 {
        fill: #9dcaa2;
      }

      .cls-21 {
        fill: #577063;
      }

      .cls-31 {
        opacity: .4;
      }

      .cls-32 {
        opacity: .38;
      }

      .cls-22 {
        fill: #af2786;
      }

      .cls-23 {
        fill: #afd3b3;
      }

      .cls-24 {
        fill: #008f1d;
      }

      .cls-33 {
        isolation: isolate;
      }

      .cls-25 {
        fill: #fff;
      }

      .cls-26 {
        fill: #0c0c0c;
      }
    </style>
    <clipPath id="clippath-2">
      <rect class="cls-5" x="25" y="135.16" width="450" height="300" rx="3.5" ry="3.5"/>
    </clipPath>
    <clipPath id="clippath-3">
      <path class="cls-5" d="M426.4,370.14c.15-1.32.56-3.62,2.07-5.27,4.28-4.66,9.68-1.35,10.27-3.52.28-1.03-1.47-2.8-3.44-3.39-4.97-1.48-5.02,2.17-6.38,1.08-1.66-1.34,5.26-8.07,2.31-14.08-1.52-3.08-5.88-5.16-8.13-3.96-1.82.96-2.14,3.98-2.19,4.59-.25,3.04,2.42,6.43,1.17,8.29-2.35,3.49-1.86-5.2-8.14-3.69-3.27.78-3.59,2.96-3.21,3.77.64,1.36,2.92.09,5.9,1.95,2.08,1.3,3.26,3.68,2.76,4.33-.58.76-3.18-1.52-5.74-.44-1.49.63-2.55,2.36-2.23,3.1.22.52,1.07.39,2.61.68.86.16,4.89.92,5.79,3.23.17.43.46,1.53-.47,3.34h7.05Z"/>
    </clipPath>
  </defs>
  <g class="cls-33">
    <g id="Objects">
      <g>
        <rect class="cls-25" x="25" y="135.16" width="450" height="300" rx="3.5" ry="3.5"/>
        <g class="cls-30">
          <path class="cls-1" d="M302.52,32.33c-11.67,3.56-56.63,17.27-85.34,61.42-6.11,9.39-34.82,53.54-21.15,96.43,18.09,56.74,91.06,50.65,118.86,105.12,23.9,46.84-38.98,84.34-18.97,139.31,10.44,28.7,38.5,54.57,66.35,59.46,86.93,15.27,262.96-157.8,213.69-312.14C540.09,69.57,396.51,3.67,302.52,32.33Z"/>
          <path class="cls-4" d="M616.57,325.87c6.68-10.2,32.43-49.53,26.2-101.82-1.32-11.12-7.55-63.42-45.52-87.6-50.24-31.99-102.37,19.42-158.6-4.6-48.35-20.66-24.08-89.73-74.65-119.14-26.4-15.35-64.51-17.25-89.04-3.17-76.54,43.95-100.88,289.6,35.81,376.58,99.5,63.31,251.97,21.97,305.8-60.25Z"/>
          <circle class="cls-11" cx="430" cy="157.4" r="128.04" transform="translate(14.64 350.16) rotate(-45)"/>
          <path class="cls-11" d="M257.71,316.81c-3.63,0-7.22.16-10.78.46,15.35,27.42,36.33,51.35,63.84,68.85,21.69,13.8,45.9,22.63,71.05,27.14-14.07-55.43-64.3-96.44-124.11-96.44Z"/>
          <path class="cls-10" d="M299.86,471.35c-35,0-64.19-8.37-79.57-24.12-15.92-16.31-22.71-47.15-15.79-71.72,6.54-23.23,24.69-33.47,42.23-43.37,17.35-9.79,33.74-19.04,36.96-40.09,3.6-23.56-6.31-42.97-15.9-61.75-10.67-20.91-20.76-40.67-12.83-65.01,7.41-22.74,28.88-42.02,60.45-54.29,18.41-7.15,48.35-12.97,86.42-.03h0c37.17,12.63,72.75,46.5,95.16,90.59,23.63,46.48,29.23,97.58,15.37,140.17-19.11,58.72-76.54,104.52-153.62,122.52-20.45,4.78-40.48,7.09-58.89,7.09ZM357.38,104.3c-17.15,0-31.22,3.6-41.6,7.63-31.29,12.16-52.54,31.21-59.86,53.66-7.8,23.95,2.19,43.52,12.77,64.25,9.66,18.92,19.64,38.48,15.99,62.36-3.29,21.53-19.89,30.9-37.46,40.81-17.37,9.8-35.33,19.93-41.76,42.77-6.83,24.26-.15,54.67,15.54,70.75,23.23,23.8,78.49,30.53,137.51,16.76,76.74-17.92,133.9-63.47,152.9-121.86,13.78-42.35,8.2-93.16-15.31-139.41-22.3-43.87-57.66-77.55-94.59-90.1l.16-.47-.16.47c-16.31-5.54-31.11-7.62-44.14-7.62Z"/>
          <path class="cls-25" d="M333.99,189.95c-7.58,2.81-6.72,5.9,1.29,4.13,8.01-1.77,25.01-3.4,16.76.7-8.25,4.1-24.88,11.1-42.96,8.63-18.07-2.47-23.66-4.34-33.88-2.56-26.91,4.69-27.61-9.76-.57-15.39,26.56-5.53,79.08-2.82,59.35,4.49Z"/>
          <path class="cls-25" d="M432.51,195.27c-15.5.6-27.82,3.21-26.46,15.63s-12.73,7.99-30.03,10.75c-17.3,2.76-24.63,13.05-11.69,20.56,12.94,7.51-21.67,7.15-36.85,6.69-15.18-.46-46.64,2.41-30.24,7.03,16.4,4.62,69.73,9.85,101.74-.85,32.01-10.7,41.8-19.55,60.72-16.3s40.6,7.93,49.22,3.01c8.62-4.92,5.14-13.95-21.84-13.42-26.98.53-43.74-10.3-31.64-17.78,12.1-7.48-1.57-16.15-22.94-15.33Z"/>
        </g>
        <g>
          <ellipse class="cls-23" cx="411.14" cy="327.21" rx="35.07" ry="2"/>
          <g>
            <path class="cls-15" d="M446.21,230.92v90.96c0,2.95-2.39,5.33-5.33,5.33h-59.48c-2.94,0-5.33-2.38-5.33-5.33v-90.96c0-2.94,2.39-5.33,5.33-5.33h59.48c2.94,0,5.33,2.39,5.33,5.33Z"/>
            <rect class="cls-16" x="381.4" y="230.92" width="59.47" height="90.96" rx="1.55" ry="1.55"/>
            <rect class="cls-20" x="386.07" y="271.71" width="50.14" height="11.84"/>
            <g>
              <rect class="cls-20" x="386.07" y="254.64" width="15.83" height="15.83"/>
              <rect class="cls-20" x="403.23" y="254.64" width="15.83" height="15.83"/>
              <rect class="cls-20" x="420.38" y="254.64" width="15.83" height="15.83"/>
            </g>
            <g>
              <rect class="cls-14" x="386.07" y="237.58" width="15.83" height="15.83"/>
              <rect class="cls-20" x="403.23" y="237.58" width="15.83" height="15.83"/>
              <rect class="cls-20" x="420.38" y="237.58" width="15.83" height="15.83"/>
            </g>
            <g>
              <path class="cls-20" d="M404.57,291.29c-1.87-1.21-4.09-1.9-6.48-1.9-4.95,0-9.2,2.99-11.04,7.27l11.04,4.75,6.48-10.11Z"/>
              <path class="cls-24" d="M409.46,297.55l-11.37,3.86-12-.4c0,.13-.01.26-.01.4,0,6.63,5.38,12.01,12.01,12.01s12.01-5.38,12.01-12.01c0-1.35-.22-2.65-.64-3.86Z"/>
              <path class="cls-14" d="M409.46,297.55c-.88-2.6-2.62-4.8-4.89-6.25l-6.48,10.11,11.37-3.86Z"/>
              <path class="cls-3" d="M387.05,296.66c-.58,1.34-.92,2.81-.97,4.35l12,.4-11.04-4.75Z"/>
            </g>
            <rect class="cls-3" x="414.98" y="309.76" width="21.23" height="3.66"/>
            <rect class="cls-3" x="414.98" y="303.65" width="21.23" height="3.66"/>
          </g>
          <g class="cls-27">
            <polygon class="cls-25" points="422.2 225.59 376.07 278.43 376.07 247.51 395.21 225.59 422.2 225.59"/>
          </g>
          <g class="cls-27">
            <polygon class="cls-25" points="428.02 225.59 376.07 285.1 376.07 297.14 438.53 225.59 428.02 225.59"/>
          </g>
        </g>
        <path class="cls-6" d="M446.21,230.92v19.48h-20.94v-24.81h15.61c2.94,0,5.33,2.39,5.33,5.33Z"/>
        <g class="cls-32">
          <path class="cls-25" d="M379.71,257.79c8.73.34,15.67,1.81,14.91,8.81-.77,7,7.17,4.5,16.92,6.06,9.75,1.55,13.88,7.36,6.59,11.59-7.29,4.23,12.21,4.03,20.76,3.77,8.55-.26,26.28,1.36,17.04,3.96s-39.29,5.55-57.33-.48c-18.04-6.03-23.55-11.02-34.21-9.19-10.66,1.83-22.87,4.47-27.73,1.7s-2.9-7.86,12.31-7.56c15.2.3,24.64-5.8,17.83-10.02-6.82-4.21.88-9.1,12.92-8.64Z"/>
        </g>
        <g>
          <path class="cls-23" d="M232.16,356.49c0,1.1,34.54,2,77.16,2s77.16-.9,77.16-2-34.54-2-77.16-2-77.16.9-77.16,2Z"/>
          <g>
            <path class="cls-21" d="M386.78,353.76c-.61,1.6-2.16,2.73-3.98,2.73h-146.2c-1.82,0-3.37-1.14-3.98-2.73-.28-.74.27-1.52,1.06-1.52h152.05c.79,0,1.33.79,1.06,1.52Z"/>
            <path class="cls-15" d="M387.06,261.94v82.18c0,4.48-3.63,8.12-8.12,8.12h-138.48c-1.56,0-3.01-.44-4.25-1.2-1.69-1.05-2.98-2.7-3.54-4.65-.22-.72-.33-1.48-.33-2.27v-82.18c0-4.48,3.64-8.11,8.12-8.11h138.48c4.49,0,8.12,3.63,8.12,8.11Z"/>
            <rect class="cls-16" x="240.46" y="261.94" width="138.48" height="82.18" rx="2.37" ry="2.37"/>
            <g>
              <rect class="cls-20" x="247.94" y="271.75" width="40.41" height="40.41"/>
              <rect class="cls-24" x="289.88" y="271.75" width="19.45" height="19.45"/>
              <rect class="cls-20" x="310.84" y="271.75" width="19.45" height="19.45"/>
              <rect class="cls-14" x="333.92" y="271.75" width="37.54" height="4.65"/>
              <rect class="cls-8" x="333.92" y="278.6" width="37.54" height="4.65"/>
              <rect class="cls-8" x="333.92" y="285.44" width="37.54" height="4.65"/>
              <rect class="cls-8" x="333.92" y="292.29" width="20.42" height="4.65"/>
              <rect class="cls-20" x="289.88" y="292.71" width="19.45" height="19.45"/>
              <rect class="cls-20" x="310.84" y="292.71" width="19.45" height="19.45"/>
              <rect class="cls-3" x="247.94" y="328.65" width="123.52" height="8.37"/>
            </g>
            <path class="cls-12" d="M323.57,352.23v.69c0,.79-.65,1.44-1.44,1.44h-24.86c-.79,0-1.44-.65-1.44-1.44v-.69h27.73Z"/>
          </g>
          <g class="cls-27">
            <path class="cls-25" d="M313.46,253.83l-80.79,92.56c-.22-.72-.33-1.48-.33-2.27v-37.68l45.92-52.61h35.2Z"/>
          </g>
          <g class="cls-27">
            <path class="cls-25" d="M334.76,253.83l-85.9,98.41h-8.4c-1.56,0-3.01-.44-4.25-1.2l84.85-97.21h13.7Z"/>
          </g>
        </g>
        <g>
          <ellipse class="cls-23" cx="442.57" cy="369.86" rx="19.03" ry="1.07"/>
          <g>
            <path class="cls-15" d="M460.77,307.81v58.42c0,1.89-1.53,3.43-3.42,3.43h-29.56c-1.9,0-3.43-1.54-3.43-3.43v-58.42c0-1.89,1.53-3.43,3.43-3.43h29.56c.37,0,.73.06,1.06.16,1.37.46,2.36,1.75,2.36,3.27Z"/>
            <rect class="cls-16" x="427.79" y="307.8" width="29.56" height="55.36" rx="1" ry="1"/>
            <g>
              <rect class="cls-14" x="430.43" y="309.31" width="17" height="17"/>
              <path class="cls-20" d="M438.93,344.73h0c-4.69,0-8.5-3.81-8.5-8.5h0c0-4.69,3.81-8.5,8.5-8.5h0c4.69,0,8.5,3.81,8.5,8.5h0c0,4.69-3.81,8.5-8.5,8.5Z"/>
              <path class="cls-2" d="M442.57,368.06h0c-.96,0-1.74-.78-1.74-1.74h0c0-.96.78-1.74,1.74-1.74h0c.96,0,1.74.78,1.74,1.74h0c0,.96-.78,1.74-1.74,1.74Z"/>
              <rect class="cls-20" x="430.43" y="346.16" width="7.32" height="13.93"/>
              <rect class="cls-20" x="438.91" y="346.16" width="7.32" height="13.93"/>
              <rect class="cls-3" x="447.38" y="346.16" width="7.32" height="13.93"/>
            </g>
            <rect class="cls-24" x="448.75" y="309.31" width="5.95" height="5.95"/>
          </g>
          <g class="cls-27">
            <polygon class="cls-25" points="448.14 304.38 445.14 307.81 443.83 309.31 430.43 324.67 427.79 327.69 424.36 331.62 424.36 311.89 430.92 304.38 448.14 304.38"/>
          </g>
          <g class="cls-27">
            <path class="cls-25" d="M458.41,304.54l-2.86,3.27-1.31,1.5-5.19,5.95-1.62,1.86-8.02,9.19-1.28,1.46h0s-7.69,8.81-7.69,8.81l-2.65,3.04-3.43,3.93v-7.68l3.43-3.93,4.92-5.63,14.72-16.87,1.42-1.63,3-3.43h5.5c.37,0,.73.06,1.06.16Z"/>
          </g>
        </g>
        <g>
          <rect class="cls-14" x="430.17" y="219.42" width="26.08" height="26.08"/>
          <polygon class="cls-25" points="440.88 226.27 440.88 238.64 447.06 232.46 440.88 226.27"/>
        </g>
        <rect class="cls-24" x="359.5" y="297.3" width="14.02" height="14.02" transform="translate(-107.83 348.29) rotate(-45)"/>
        <g>
          <path class="cls-23" d="M379.49,368.79c0,.59,6.04,1.07,13.5,1.07s13.5-.48,13.5-1.07-6.04-1.07-13.5-1.07-13.5.48-13.5,1.07Z"/>
          <path class="cls-7" d="M374.01,299.13c.07.28.3.58.3.58,0,0-1.14.49-1.71.58-.57.09-.77-.26-1.41-.37-.64-.11-.84-.14-.88-1.01-.04-.7.65-.98,1.13-.84.48.14,1.13.87,1.53.82.4-.05.99-.23.99-.23,0,0,0,.2.06.46Z"/>
          <path class="cls-7" d="M388.81,291.21c-1.1.42-1.96-.03-2.25-.26s.37-.69.57-1.03c.08-.15.08-.35.03-.61-.07-.34-.25-.76-.46-1.22l2.18-.93s.19,1.14.29,1.56c.02.07.04.14.07.19.14.24.44.29.96.53.63.29-.29,1.36-1.39,1.77Z"/>
          <g>
            <path class="cls-7" d="M389.12,286.14c-.01,1.56-.04,2.31-.58,2.99-.54.68-1.13,1.03-1.61,1.07-.61.05-1.6-.97-1.81-1.61-.22-.66-.58-2.39-.52-4.09.03-.86.87-1.98,1.83-2.06.96-.08,2.73-.09,2.7,3.7Z"/>
            <path class="cls-7" d="M384.49,286.95c.17.55.54.93.83.84.29-.09.39-.61.21-1.16-.17-.55-.54-.93-.83-.84-.29.09-.39.61-.21,1.16Z"/>
            <path class="cls-7" d="M388.65,286.09c-.17.55-.08,1.07.21,1.16.29.09.66-.28.84-.83.17-.55.08-1.07-.21-1.16s-.66.28-.84.83Z"/>
          </g>
          <path class="cls-22" d="M391.68,335.3c1.57-.19,2.91-.71,2.91.26,0,.82-.08.76-2.76.95-1.57.11-2.87.07-2.91-.26-.04-.34,1.2-.76,2.76-.95Z"/>
          <path class="cls-14" d="M393.08,289.81c1.94,1.8,5.13,5.98,5.6,8.22.1.5-.2.99-.69,1.12l-6.98,1.89c-.16.04-.34-.03-.41-.19l-.25-.51c-.09-.18-.01-.39.17-.48l5.23-2.77c-1.5-2.84-2.57-3.44-2.57-3.44.18,3.53,3.32,11.46,3.52,12.4.25,1.17.45,2.12.04,2.21-1.29.27-4.34.44-7.03.88-1.93.31-1.94-.41-1.67-3.57.4-4.77-.88-6.73-1.86-8.38-.84-1.42-.67-2.79-.67-2.79l-3.02,4.01c-.28.35-.68.57-1.13.64l-7.58.84c-.32.04-.6-.21-.6-.53v-.25c0-.24.17-.44.4-.5l7.15-1.88s2.02-3.25,2.97-4.59c.4-.56,1.16-2.21,2.65-2.49,4.7-.87,5.36-1.13,6.74.15Z"/>
          <path class="cls-17" d="M387.87,307.91s.06.77.15,1.97c.01.11.02.22.03.34.29,3.62.85,10.41,1.07,11.96.3,2.08,2.54,9.31,3.8,13.07.06.19.24.31.43.3l.75-.02c.26,0,.46-.23.43-.5-.22-2.52-1.82-10.68-2.2-12.46-.34-1.63-.58-7.6.29-10.3.14-.45.8-.42.92.03.61,2.2,1.96,6.99,2.77,9.08.95,2.42,11.63-.55,13.55-1.11.12-.04.21-.14.22-.27l.04-.54c.02-.19-.13-.35-.32-.33-1.84.15-10.5.8-10.9-.87-.37-1.52-1.11-5.96-1.56-8.71h0c-.03-.14-.05-.27-.07-.4-.18-1.13-.3-1.89-.3-1.89,0,0-.04-.39-.37-.4h-.04c-.07,0-.15-.01-.27-.01-.45,0-1.4.03-4.17.32-1.58.17-2.6.28-3.24.38-.1.01-.19.03-.27.04-.61.11-.76.2-.75.33Z"/>
          <path class="cls-22" d="M408.78,321.66c.35-1.54.91-2.72,1.24-2.65.33.08.69.33-.05,2.92-.43,1.52-.91,2.72-1.24,2.65-.33-.08-.31-1.38.05-2.92Z"/>
          <path class="cls-22" d="M394.06,298l1.05-.56,1.3,2.14-1.73.47c-.22-.68-.43-1.37-.62-2.06Z"/>
          <path class="cls-26" d="M385.16,287.37c.63,1.58.24,4.48.78,7.04.54,2.56,4.61,6.67,8.12,3.75,4.03-3.35-1.14-7.07-2.08-9.44-1.06-2.66-1.03-4.74-2.44-6.2-1.34-1.4-3.34-.81-4.17-.11-1.74,1.47-.73,3.64-.21,4.96Z"/>
          <g>
            <path class="cls-24" d="M386.23,336.57c.2.02.33.2.31.4l-.08.65s.05.02.08.02h12.85s.05-.01.08-.02l-.08-.65c-.02-.2.11-.37.31-.4.18-.03.34.1.38.27-.04-.35-.33-.63-.69-.63h-12.85c-.36,0-.65.28-.69.63.04-.17.21-.3.38-.27Z"/>
            <path class="cls-24" d="M400.09,336.88s0-.02-.01-.04c-.04-.17-.21-.3-.38-.27-.2.02-.33.2-.31.4l.08.65,1.35,10.94h-15.7l1.35-10.94.08-.65c.02-.2-.11-.37-.31-.4-.18-.03-.34.1-.38.27,0,.01-.01.03-.01.04l-2.78,22.56c-.03.05-.05.11-.05.17,0,.03.01.06.02.09l-1.1,8.93c-.02.2.11.37.31.4.01,0,.03,0,.04,0,.18,0,.33-.13.35-.31l1.08-8.75h18.52l1.08,8.75c.02.18.18.31.35.31.01,0,.03,0,.04,0,.2-.02.33-.2.31-.4l-3.92-31.75ZM383.79,359.26l1.23-9.99h15.88l1.23,9.99h-18.34Z"/>
          </g>
          <path class="cls-9" d="M388.72,308.23c0-.22-.03-.44-.1-.65.08-.01.17-.03.27-.04.06.22.1.45.1.68,0,.8-.36,1.51-.93,1.98-.01-.12-.02-.23-.03-.34.43-.42.69-1,.69-1.65Z"/>
          <path class="cls-9" d="M396.3,306.85c.12,0,.2,0,.27.01-.05.18-.07.37-.07.57,0,.69.3,1.31.79,1.73.02.13.04.26.07.4-.68-.46-1.12-1.24-1.12-2.12,0-.2.02-.4.07-.58Z"/>
        </g>
        <g class="cls-28">
          <g>
            <polygon class="cls-19" points="288.33 267.68 291.62 275.61 286.87 277.58 283.58 269.65 276.89 276.34 276.89 253.83 284.01 253.83 297.86 267.68 288.33 267.68"/>
            <polygon class="cls-19" points="276.89 276.34 276.89 276.34 276.89 276.34 276.89 276.34"/>
          </g>
        </g>
        <g>
          <polygon class="cls-25" points="302.86 262.68 296.71 256.53 286.6 246.41 281.89 241.71 281.89 248.5 281.89 259.09 281.89 259.09 281.89 259.09 281.89 271.34 288.58 264.65 291.87 272.58 296.62 270.61 293.33 262.68 302.86 262.68"/>
          <polygon class="cls-25" points="281.89 271.34 281.89 271.34 281.89 271.34 281.89 271.34"/>
        </g>
        <g>
          <g>
            <ellipse class="cls-23" cx="422.9" cy="383.7" rx="7.55" ry=".75"/>
            <g>
              <path class="cls-17" d="M426.4,370.14c.15-1.32.56-3.62,2.07-5.27,4.28-4.66,9.68-1.35,10.27-3.52.28-1.03-1.47-2.8-3.44-3.39-4.97-1.48-5.02,2.17-6.38,1.08-1.66-1.34,5.26-8.07,2.31-14.08-1.52-3.08-5.88-5.16-8.13-3.96-1.82.96-2.14,3.98-2.19,4.59-.25,3.04,2.42,6.43,1.17,8.29-2.35,3.49-1.86-5.2-8.14-3.69-3.27.78-3.59,2.96-3.21,3.77.64,1.36,2.92.09,5.9,1.95,2.08,1.3,3.26,3.68,2.76,4.33-.58.76-3.18-1.52-5.74-.44-1.49.63-2.55,2.36-2.23,3.1.22.52,1.07.39,2.61.68.86.16,4.89.92,5.79,3.23.17.43.46,1.53-.47,3.34h7.05Z"/>
              <g class="cls-29">
                <path class="cls-13" d="M436.59,397.86c.34-3.05,1.31-8.41,4.81-12.22,9.94-10.82,22.46-3.14,23.84-8.17.66-2.4-3.42-6.5-7.98-7.86-11.54-3.43-11.64,5.04-14.8,2.49-3.86-3.11,12.21-18.72,5.36-32.66-3.51-7.15-13.63-11.96-18.87-9.19-4.22,2.23-4.96,9.24-5.08,10.64-.58,7.06,5.62,14.91,2.71,19.24-5.45,8.09-4.32-12.06-18.88-8.56-7.59,1.82-8.32,6.87-7.44,8.75,1.48,3.15,6.78.21,13.69,4.52,4.83,3.02,7.56,8.54,6.41,10.04-1.34,1.75-7.37-3.53-13.32-1.03-3.46,1.45-5.91,5.47-5.18,7.2.52,1.22,2.49.9,6.05,1.57,1.99.38,11.35,2.14,13.43,7.5.38.99,1.08,3.55-1.09,7.74h16.36Z"/>
              </g>
              <path class="cls-20" d="M432.15,374.45c0,5.16-4.23,9.34-9.42,9.25-5.09-.09-9.07-4.46-9.07-9.55v-5.28c0-1.23.99-2.22,2.22-2.22h14.05c1.23,0,2.22.99,2.22,2.22v5.59Z"/>
            </g>
          </g>
          <path class="cls-18" d="M419.15,366.26c-.1,0-.19-.06-.23-.16-.54-1.41-2.53-2.5-5.6-3.08-.48-.09-.89-.14-1.25-.18-.81-.09-1.34-.16-1.55-.65-.13-.3-.09-.69.09-1.15.32-.79,1.15-1.81,2.28-2.28,1.6-.67,3.18-.12,4.33.28.58.2,1.18.41,1.31.25.07-.09.08-.27.04-.5-.18-.98-1.25-2.54-2.74-3.47-1.52-.95-2.83-1.05-3.88-1.14-.98-.08-1.75-.14-2.12-.92-.18-.38-.26-1.11.12-1.9.36-.74,1.21-1.73,3.25-2.22,3.69-.88,5.16,1.6,6.14,3.25.38.65.74,1.26,1.05,1.27.16,0,.39-.12.8-.72.62-.92.16-2.31-.38-3.92-.44-1.33-.95-2.83-.83-4.26.07-.87.45-3.8,2.32-4.79.9-.48,2.15-.5,3.52-.05,2.12.69,4.06,2.31,4.96,4.12,1.87,3.8-.05,7.78-1.46,10.69-.75,1.56-1.41,2.91-.92,3.31.35.28.51.17,1.03-.28.78-.67,2.08-1.79,5.27-.84,2.12.63,3.94,2.5,3.61,3.69-.04.13-.17.21-.31.17-.13-.04-.21-.17-.17-.31.23-.83-1.35-2.51-3.27-3.08-2.92-.87-4.05.1-4.8.74-.48.41-.98.84-1.67.29-.8-.64-.13-2.01.78-3.91,1.36-2.81,3.22-6.67,1.46-10.25-.84-1.7-2.67-3.22-4.66-3.87-1.24-.4-2.35-.39-3.13.02-1.69.89-2.01,3.81-2.06,4.39-.11,1.32.36,2.71.8,4.06.55,1.66,1.08,3.23.32,4.35-.43.64-.82.94-1.2.94,0,0-.01,0-.02,0-.58-.02-.97-.68-1.46-1.51-.95-1.61-2.26-3.82-5.59-3.02-1.85.44-2.61,1.31-2.92,1.95-.28.59-.26,1.16-.12,1.47.23.49.71.55,1.7.63,1.05.09,2.48.2,4.1,1.21,1.66,1.04,2.77,2.73,2.96,3.8.07.38.03.68-.13.89-.35.46-1.02.22-1.87-.08-1.08-.38-2.55-.89-3.97-.29-.99.41-1.73,1.33-2.01,2.01-.13.32-.16.6-.09.77.09.21.43.26,1.14.34.35.04.78.09,1.28.18,3.29.62,5.36,1.79,5.97,3.39.05.13-.01.27-.14.32-.03.01-.06.02-.09.02Z"/>
        </g>
        <g class="cls-31">
          <g>
            <path class="cls-20" d="M351.13,229.13c-.83,0-1.5-.67-1.5-1.5,0-7.72,3-14.97,8.46-20.43,5.46-5.46,12.71-8.46,20.42-8.46h.02c.83,0,1.5.67,1.5,1.5s-.67,1.5-1.5,1.5h-.02c-6.91,0-13.4,2.69-18.29,7.58-4.89,4.89-7.58,11.39-7.58,18.31,0,.83-.67,1.5-1.5,1.5h0Z"/>
            <path class="cls-20" d="M351.13,229.13c-.83,0-1.5-.67-1.5-1.5,0-7.72,3-14.97,8.46-20.43,5.46-5.46,12.71-8.46,20.42-8.46h.02c.83,0,1.5.67,1.5,1.5s-.67,1.5-1.5,1.5h-.02c-6.91,0-13.4,2.69-18.29,7.58-4.89,4.89-7.58,11.39-7.58,18.31,0,.83-.67,1.5-1.5,1.5h0Z"/>
            <path class="cls-20" d="M359.34,229.13c-.83,0-1.5-.67-1.5-1.5,0-5.52,2.15-10.71,6.06-14.62,3.91-3.91,9.1-6.06,14.62-6.06.83,0,1.5.67,1.5,1.5s-.67,1.5-1.5,1.5c-4.72,0-9.16,1.84-12.5,5.18-3.34,3.34-5.18,7.78-5.18,12.5,0,.83-.67,1.5-1.5,1.5Z"/>
            <path class="cls-20" d="M367.56,229.13c-.83,0-1.5-.67-1.5-1.5,0-3.33,1.29-6.46,3.65-8.81,2.35-2.35,5.48-3.65,8.81-3.65.83,0,1.5.67,1.5,1.5s-.67,1.5-1.5,1.5c-2.53,0-4.9.98-6.69,2.77-1.79,1.78-2.77,4.16-2.77,6.69,0,.83-.67,1.5-1.5,1.5Z"/>
            <path class="cls-20" d="M359.34,229.13c-.83,0-1.5-.67-1.5-1.5,0-5.52,2.15-10.71,6.06-14.62,3.91-3.91,9.1-6.06,14.62-6.06.83,0,1.5.67,1.5,1.5s-.67,1.5-1.5,1.5c-4.72,0-9.16,1.84-12.5,5.18-3.34,3.34-5.18,7.78-5.18,12.5,0,.83-.67,1.5-1.5,1.5Z"/>
          </g>
        </g>
      </g>
    </g>
  </g>
</svg>